<svg xmlns="http://www.w3.org/2000/svg" viewBox="0 0 32 32" fill="none">
  <rect width="32" height="32" rx="6" fill="#5B2D0A"/>
  <!-- Arc left -->
  <path d="M14,3 C7,3 4,8 4,16 C4,24 7,29 14,29 L17,29 C11,29 8,24 8,16 C8,8 11,3 17,3 Z" fill="white" opacity="0.9"/>
  <!-- White cutout -->
  <path d="M8,22 C7,17 7,10 10,5 L13,5 C10,10 10,17 11,22 Z" fill="#5B2D0A"/>
  <!-- Green leaf -->
  <path d="M4,24 Q9,29 12,25 C10,21 5,22 4,24 Z" fill="#3CB043"/>
  <!-- Green wedge -->
  <polygon points="14,3 18,3 16,9" fill="#3CB043"/>
  <!-- N right diagonal + leg -->
  <path d="M14,3 L18,3 L24,21 L24,3 L28,3 L28,29 L24,29 L18,12 L18,29 L14,29 Z" fill="white" opacity="0.9"/>
</svg>
